<?xml version="1.0" encoding="utf-8"?>
<!-- Generator: Adobe Illustrator 18.0.0, SVG Export Plug-In . SVG Version: 6.00 Build 0)  -->
<!DOCTYPE svg PUBLIC "-//W3C//DTD SVG 1.1//EN" "http://www.w3.org/Graphics/SVG/1.1/DTD/svg11.dtd">
<svg version="1.1" id="Layer_1" xmlns="http://www.w3.org/2000/svg" xmlns:xlink="http://www.w3.org/1999/xlink" x="0px" y="0px"
	 viewBox="0 0 300 95" enable-background="new 0 0 300 95" xml:space="preserve">
<path fill="#FFFFFF" d="M290.6,84.7l-11.1-34.2c-0.1-0.4-0.4-0.7-0.7-1c-0.5-0.4-1.3-0.6-2-0.4c-1.1,0.4-1.7,1.6-1.4,2.7l8.8,27.2
	c-33.8-27-82.5-42.4-134.8-42.4C98.1,36.6,49.5,52,14.8,79l9.1-27c0.4-1.1-0.2-2.3-1.3-2.7c-0.7-0.2-1.5-0.1-2,0.4
	c-0.3,0.2-0.5,0.6-0.7,1L8.4,84.7c-0.2,0.7-0.1,1.5,0.4,2c0.5,0.6,1.2,0.9,1.9,0.8l35.7-4c1.2-0.1,2-1.2,1.9-2.4
	c-0.1-1.2-1.2-2-2.4-1.9l-29.5,3.3c34.1-26.8,82.2-42.2,133.1-42.2c51.8,0,99.9,15.3,133.1,42.1l-29.4-3.7c-1.2-0.1-2.2,0.7-2.4,1.8
	c-0.1,1.2,0.7,2.2,1.9,2.4l35.7,4.5c0.7,0.1,1.4-0.2,1.9-0.8C290.7,86.1,290.9,85.4,290.6,84.7z"/>
<g>
	<path fill="#FFFFFF" d="M54.3,32.9c-0.1-0.3-0.3-0.5-0.5-0.7c-0.2-0.2-0.4-0.3-0.8-0.4c-0.3-0.1-0.7-0.1-1.2-0.1s-1.1,0.1-1.8,0.2
		c-0.7,0.1-1.4,0.2-2.1,0.2s-1.2,0-1.7-0.1s-0.9-0.3-1.3-0.6c-0.4-0.3-0.6-0.6-0.8-1.1C44,29.9,43.9,29.5,44,29s0.2-1,0.5-1.4
		c0.3-0.5,0.7-0.9,1.2-1.3s1.1-0.8,1.8-1.1c0.8-0.3,1.5-0.5,2.2-0.6c0.7-0.1,1.3,0,1.8,0.1c0.5,0.2,1,0.4,1.4,0.7
		c0.4,0.3,0.7,0.7,0.9,1.2L52,27.5c-0.1-0.3-0.3-0.6-0.6-0.8c-0.2-0.2-0.5-0.4-0.9-0.5s-0.7-0.1-1.1-0.1c-0.4,0-0.9,0.2-1.4,0.4
		c-0.5,0.2-0.9,0.4-1.2,0.7s-0.5,0.5-0.7,0.8s-0.2,0.5-0.3,0.8c0,0.3,0,0.6,0.2,0.8c0.1,0.2,0.3,0.4,0.5,0.6s0.5,0.3,0.8,0.3
		c0.3,0.1,0.7,0.1,1.2,0.1s1-0.1,1.6-0.2c0.9-0.1,1.6-0.2,2.3-0.2s1.2,0.1,1.7,0.2c0.5,0.1,0.9,0.3,1.2,0.6s0.6,0.7,0.8,1.1
		c0.2,0.5,0.3,1,0.2,1.4c-0.1,0.5-0.2,1-0.5,1.4s-0.7,0.9-1.2,1.3s-1.1,0.7-1.8,1.1c-0.4,0.2-0.8,0.3-1.3,0.4
		c-0.4,0.1-0.9,0.2-1.3,0.2c-0.4,0-0.9,0-1.3,0s-0.8-0.2-1.2-0.3s-0.7-0.4-0.9-0.6s-0.5-0.6-0.7-1l1.8-0.8c0.2,0.4,0.4,0.7,0.7,0.9
		s0.7,0.3,1,0.4c0.4,0.1,0.8,0,1.2,0c0.4-0.1,0.9-0.2,1.3-0.4c0.9-0.4,1.6-0.9,2-1.4C54.5,34,54.5,33.4,54.3,32.9z"/>
	<path fill="#FFFFFF" d="M67.7,29.1l-0.3-7.6l1.8-0.6l0,10l-1.4,0.5l-4.8-6l-0.2,7.7l-1.4,0.5l-6.1-8l1.8-0.6l4.3,6.1l0.1-7.6
		l1.4-0.5L67.7,29.1z"/>
	<path fill="#FFFFFF" d="M70.7,18c-0.1-0.3,0-0.5,0.1-0.7s0.4-0.4,0.7-0.5c0.4-0.1,0.6-0.1,0.9,0c0.2,0.1,0.4,0.3,0.5,0.6
		c0.1,0.3,0,0.5-0.1,0.7c-0.1,0.2-0.4,0.4-0.7,0.5c-0.4,0.1-0.6,0.1-0.9,0C70.9,18.5,70.7,18.3,70.7,18z M75.9,29.1l-1.8,0.5
		l-2.6-9.2l1.8-0.5L75.9,29.1z"/>
	<path fill="#FFFFFF" d="M86.6,21.6c0.2,0.7,0.2,1.3,0.2,1.9c0,0.6-0.2,1.2-0.4,1.7c-0.3,0.5-0.6,0.9-1.1,1.3
		c-0.5,0.4-1,0.6-1.7,0.8c-0.7,0.2-1.3,0.2-1.8,0.2c-0.5-0.1-1-0.2-1.5-0.5l1.1,4.5l-1.8,0.4L76.4,19l1.7-0.4l0.3,1
		c0.3-0.5,0.6-0.9,1.1-1.2c0.5-0.3,1-0.6,1.7-0.7c0.7-0.2,1.3-0.2,1.9-0.1s1.1,0.3,1.5,0.6s0.8,0.8,1.2,1.3c0.3,0.5,0.6,1.2,0.7,1.9
		L86.6,21.6z M84.7,21.8c-0.1-0.5-0.3-0.9-0.5-1.3c-0.2-0.4-0.5-0.7-0.8-0.9c-0.3-0.3-0.7-0.4-1.1-0.5C82,19,81.5,19,81,19.2
		c-0.3,0.1-0.6,0.2-0.8,0.3c-0.2,0.1-0.4,0.3-0.6,0.4c-0.2,0.2-0.3,0.3-0.4,0.5s-0.2,0.4-0.3,0.6l1.1,4.4c0.2,0.2,0.3,0.3,0.5,0.4
		c0.2,0.1,0.4,0.2,0.6,0.3c0.2,0.1,0.5,0.1,0.8,0.1c0.3,0,0.6,0,0.9-0.1c0.5-0.1,0.9-0.3,1.2-0.6c0.3-0.3,0.6-0.6,0.7-1
		s0.2-0.8,0.3-1.2s0-0.9-0.1-1.4L84.7,21.8z"/>
	<path fill="#FFFFFF" d="M94.4,24.9c-0.8,0.1-1.5,0.2-2.1,0.1c-0.7-0.1-1.2-0.3-1.7-0.6c-0.5-0.3-0.9-0.7-1.3-1.2
		c-0.3-0.5-0.6-1.1-0.7-1.7L88.5,21c-0.1-0.8-0.1-1.5,0-2.1c0.1-0.6,0.4-1.2,0.8-1.7c0.4-0.5,0.8-0.9,1.3-1.2
		c0.5-0.3,1.1-0.5,1.7-0.7c0.8-0.1,1.5-0.2,2.1,0s1.1,0.4,1.6,0.7s0.8,0.8,1.1,1.3s0.5,1.1,0.6,1.8l0.1,0.7l-7.3,1.4
		c0.1,0.4,0.3,0.8,0.5,1.2c0.2,0.3,0.5,0.6,0.8,0.9c0.3,0.2,0.7,0.4,1.1,0.5c0.4,0.1,0.9,0.1,1.4,0c0.7-0.1,1.2-0.3,1.6-0.7
		c0.4-0.3,0.7-0.7,1-1.1l1.3,0.5c-0.1,0.3-0.3,0.5-0.5,0.8s-0.5,0.5-0.7,0.7s-0.6,0.4-1.1,0.6C95.4,24.7,94.9,24.8,94.4,24.9z
		 M92.5,16.6c-0.4,0.1-0.7,0.2-1,0.4c-0.3,0.2-0.5,0.4-0.7,0.7s-0.4,0.6-0.4,1c-0.1,0.4-0.1,0.8-0.1,1.2l5.4-1l0-0.1
		c-0.1-0.3-0.2-0.6-0.4-0.9c-0.2-0.3-0.4-0.5-0.6-0.7c-0.2-0.2-0.5-0.3-0.9-0.4C93.4,16.5,93,16.5,92.5,16.6z"/>
	<path fill="#FFFFFF" d="M106.5,10.8l0.3,2.3l2-0.3L109,14l-2,0.3l0.8,5.8c0,0.2,0.1,0.4,0.2,0.6c0.1,0.1,0.2,0.2,0.3,0.3
		c0.1,0.1,0.3,0.1,0.4,0.1c0.1,0,0.3,0,0.5,0c0.2,0,0.3-0.1,0.5-0.1c0.2-0.1,0.3-0.1,0.4-0.1l0.2,1.3c-0.1,0.1-0.3,0.1-0.6,0.2
		s-0.5,0.1-0.8,0.2c-0.3,0-0.7,0.1-1,0c-0.3,0-0.6-0.1-0.9-0.3c-0.3-0.2-0.5-0.4-0.7-0.7s-0.3-0.7-0.4-1.2l-0.8-5.8l-2,0.3l-0.2-1.2
		l2-0.3l-0.3-2.3L106.5,10.8z"/>
	<path fill="#FFFFFF" d="M111,17.2c-0.1-0.7,0-1.3,0.1-1.9c0.2-0.6,0.4-1.2,0.8-1.6c0.4-0.5,0.9-0.9,1.4-1.2c0.6-0.3,1.3-0.5,2-0.6
		c0.8-0.1,1.5,0,2.1,0.1c0.6,0.2,1.2,0.5,1.7,0.8s0.9,0.9,1.2,1.4s0.5,1.2,0.6,1.9l0,0.2c0.1,0.7,0,1.3-0.1,1.9
		c-0.2,0.6-0.4,1.2-0.8,1.6c-0.4,0.5-0.9,0.9-1.5,1.2c-0.6,0.3-1.3,0.5-2,0.6c-0.8,0.1-1.5,0-2.1-0.1c-0.6-0.2-1.2-0.5-1.7-0.8
		s-0.9-0.9-1.2-1.4c-0.3-0.6-0.5-1.2-0.6-1.9L111,17.2z M112.9,17.2c0.1,0.5,0.2,0.9,0.3,1.3c0.2,0.4,0.4,0.8,0.7,1
		c0.3,0.3,0.6,0.5,1,0.7c0.4,0.1,0.9,0.2,1.4,0.1c0.5-0.1,1-0.2,1.3-0.4c0.4-0.2,0.7-0.5,0.9-0.9s0.4-0.7,0.5-1.2
		c0.1-0.4,0.1-0.9,0.1-1.4l0-0.2c-0.1-0.5-0.2-0.9-0.3-1.3c-0.2-0.4-0.4-0.8-0.7-1c-0.3-0.3-0.6-0.5-1.1-0.7
		c-0.4-0.1-0.9-0.2-1.4-0.1c-0.5,0.1-0.9,0.2-1.3,0.4c-0.4,0.2-0.7,0.5-0.9,0.9c-0.2,0.3-0.4,0.7-0.5,1.2c-0.1,0.4-0.1,0.9,0,1.4
		L112.9,17.2z"/>
	<path fill="#FFFFFF" d="M133.1,19c0.3,0,0.6-0.1,0.9-0.2c0.3-0.1,0.6-0.3,0.8-0.4c0.2-0.2,0.4-0.4,0.5-0.6c0.1-0.2,0.2-0.5,0.2-0.7
		l1.8-0.1c0,0.4-0.1,0.8-0.3,1.2c-0.2,0.4-0.5,0.8-0.9,1.1s-0.8,0.6-1.3,0.8s-1.1,0.3-1.6,0.3c-0.8,0-1.5,0-2.2-0.3
		c-0.6-0.2-1.2-0.5-1.6-0.9c-0.4-0.4-0.8-0.9-1-1.5c-0.2-0.6-0.4-1.2-0.4-1.8l0-0.4c0-0.6,0-1.2,0.2-1.8c0.2-0.6,0.4-1.1,0.8-1.6
		s0.9-0.8,1.5-1.1c0.6-0.3,1.3-0.5,2.1-0.5c0.6,0,1.2,0,1.8,0.2c0.5,0.1,1,0.4,1.4,0.6c0.4,0.3,0.7,0.6,1,1c0.2,0.4,0.4,0.9,0.4,1.3
		l-1.8,0.1c0-0.3-0.1-0.6-0.3-0.8c-0.1-0.2-0.3-0.5-0.6-0.6c-0.2-0.2-0.5-0.3-0.8-0.4c-0.3-0.1-0.7-0.1-1-0.1
		c-0.6,0-1.1,0.2-1.4,0.4c-0.4,0.2-0.7,0.5-0.9,0.8c-0.2,0.3-0.4,0.7-0.4,1.1c-0.1,0.4-0.1,0.8-0.1,1.2l0,0.4c0,0.4,0.1,0.8,0.2,1.2
		s0.3,0.8,0.5,1.1s0.6,0.6,1,0.7C132,18.9,132.5,19,133.1,19z"/>
	<path fill="#FFFFFF" d="M141.2,11.4c0.4-0.4,0.8-0.8,1.4-1c0.5-0.2,1.2-0.4,1.8-0.4c0.5,0,1,0,1.5,0.2c0.4,0.1,0.8,0.3,1.1,0.6
		c0.3,0.3,0.6,0.6,0.7,1.1c0.2,0.4,0.3,1,0.3,1.6l0.1,6.2l-1.9,0l-0.1-6.2c0-0.4-0.1-0.7-0.2-0.9s-0.2-0.5-0.4-0.6
		c-0.2-0.2-0.4-0.3-0.7-0.3c-0.3-0.1-0.6-0.1-0.9-0.1c-0.6,0-1.1,0.2-1.6,0.5s-0.8,0.7-1.1,1.1l0.1,6.8l-1.9,0l-0.3-13.5l1.9,0
		L141.2,11.4z"/>
	<path fill="#FFFFFF" d="M157.6,19.7c-0.1-0.1-0.1-0.3-0.2-0.4c0-0.2-0.1-0.4-0.1-0.6c-0.2,0.2-0.4,0.3-0.6,0.4s-0.5,0.3-0.7,0.4
		c-0.3,0.1-0.5,0.2-0.9,0.2s-0.6,0.1-1,0.1c-0.6,0-1.1-0.1-1.5-0.2s-0.8-0.4-1.2-0.6c-0.3-0.3-0.6-0.6-0.7-0.9
		c-0.2-0.3-0.3-0.7-0.2-1.1c0-0.5,0.1-1,0.4-1.3c0.2-0.4,0.6-0.7,1-1c0.4-0.3,1-0.4,1.6-0.6s1.3-0.2,2-0.2l1.9,0l0-0.7
		c0-0.6-0.2-1-0.6-1.4c-0.4-0.3-1-0.5-1.7-0.5c-0.4,0-0.7,0-1,0.1c-0.3,0.1-0.5,0.2-0.8,0.3c-0.2,0.1-0.4,0.3-0.5,0.5
		c-0.1,0.2-0.2,0.4-0.2,0.6l-1.9,0c0-0.3,0.1-0.7,0.3-1c0.2-0.3,0.5-0.6,0.9-0.9c0.4-0.3,0.8-0.5,1.4-0.6c0.5-0.2,1.1-0.2,1.8-0.2
		c0.6,0,1.1,0.1,1.6,0.2s0.9,0.3,1.3,0.6c0.4,0.3,0.6,0.6,0.8,1c0.2,0.4,0.3,0.9,0.3,1.4l-0.1,4.4c0,0.3,0,0.7,0.1,1
		c0.1,0.4,0.1,0.7,0.3,0.9l0,0.1L157.6,19.7z M154.5,18.5c0.3,0,0.7,0,1-0.1c0.3-0.1,0.6-0.2,0.8-0.3c0.2-0.1,0.5-0.3,0.6-0.4
		c0.2-0.2,0.3-0.3,0.4-0.5l0-2l-1.6,0c-1.1,0-1.9,0.1-2.5,0.4s-0.9,0.7-0.9,1.3c0,0.2,0,0.4,0.1,0.6c0.1,0.2,0.2,0.4,0.4,0.5
		s0.4,0.3,0.7,0.4C153.9,18.4,154.2,18.5,154.5,18.5z"/>
	<path fill="#FFFFFF" d="M164.3,10.5l0,1.2c0.4-0.4,0.9-0.7,1.5-0.9c0.6-0.2,1.2-0.3,1.9-0.3c0.5,0,1,0.1,1.4,0.3s0.8,0.4,1.1,0.7
		c0.3,0.3,0.5,0.7,0.6,1.1c0.1,0.4,0.2,1,0.2,1.6l-0.3,6.2l-1.9-0.1l0.3-6.2c0-0.4,0-0.7-0.1-1c-0.1-0.3-0.2-0.5-0.4-0.7
		c-0.2-0.2-0.4-0.3-0.7-0.4s-0.6-0.1-0.9-0.2c-0.6,0-1.1,0.1-1.6,0.3c-0.5,0.3-0.9,0.6-1.1,1.1l-0.4,6.8l-1.9-0.1l0.5-9.5
		L164.3,10.5z"/>
	<path fill="#FFFFFF" d="M173.4,15.6c0.1-0.7,0.2-1.4,0.5-1.9c0.3-0.6,0.6-1.1,1-1.4s0.9-0.7,1.4-0.9c0.6-0.2,1.2-0.2,1.8-0.2
		c0.7,0.1,1.3,0.2,1.8,0.5c0.5,0.3,0.9,0.6,1.2,1l0.2-1l1.7,0.2l-0.8,9.3c-0.1,0.6-0.2,1.2-0.5,1.6s-0.6,0.9-1.1,1.1
		c-0.4,0.3-1,0.5-1.5,0.6c-0.6,0.1-1.2,0.2-1.9,0.1c-0.3,0-0.6-0.1-1-0.2c-0.4-0.1-0.7-0.2-1.1-0.4c-0.4-0.2-0.7-0.4-1-0.6
		c-0.3-0.2-0.6-0.5-0.8-0.9l1.1-0.9c0.2,0.3,0.4,0.5,0.7,0.7c0.2,0.2,0.5,0.3,0.7,0.5s0.5,0.2,0.7,0.3s0.5,0.1,0.7,0.1
		c0.4,0,0.8,0,1.2-0.1c0.4-0.1,0.7-0.2,1-0.4c0.3-0.2,0.5-0.4,0.7-0.7c0.2-0.3,0.3-0.7,0.3-1.1l0.1-0.8c-0.4,0.3-0.9,0.6-1.4,0.7
		c-0.5,0.1-1.1,0.2-1.8,0.1c-0.7-0.1-1.2-0.2-1.7-0.5c-0.5-0.3-0.9-0.7-1.3-1.1c-0.3-0.5-0.6-1-0.7-1.6c-0.1-0.6-0.2-1.3-0.1-1.9
		L173.4,15.6z M175.2,16c0,0.5,0,0.9,0,1.3c0.1,0.4,0.2,0.8,0.4,1.1s0.5,0.6,0.8,0.8c0.3,0.2,0.8,0.3,1.3,0.4c0.3,0,0.6,0,0.9,0
		c0.3,0,0.5-0.1,0.7-0.2c0.2-0.1,0.4-0.2,0.6-0.4c0.2-0.2,0.3-0.3,0.5-0.5l0.4-4.3c-0.1-0.2-0.2-0.4-0.4-0.6
		c-0.1-0.2-0.3-0.3-0.5-0.5c-0.2-0.1-0.4-0.3-0.7-0.3c-0.3-0.1-0.5-0.2-0.9-0.2c-0.5,0-1,0-1.3,0.2s-0.7,0.4-1,0.7
		c-0.3,0.3-0.5,0.6-0.6,1.1s-0.2,0.8-0.3,1.3L175.2,16z"/>
	<path fill="#FFFFFF" d="M189.3,22.3c-0.8-0.1-1.4-0.3-2-0.6s-1.1-0.7-1.5-1.1c-0.4-0.5-0.7-1-0.8-1.6c-0.2-0.6-0.2-1.2-0.1-1.9
		l0-0.4c0.1-0.8,0.3-1.4,0.7-2c0.3-0.6,0.8-1,1.3-1.4c0.5-0.4,1-0.6,1.6-0.8s1.2-0.2,1.8-0.1c0.8,0.1,1.4,0.3,2,0.6
		c0.5,0.3,1,0.7,1.3,1.1c0.3,0.5,0.5,1,0.6,1.6c0.1,0.6,0.1,1.2,0,1.9l-0.1,0.7l-7.4-0.9c0,0.4,0,0.9,0.1,1.3s0.3,0.8,0.5,1.1
		s0.5,0.6,0.9,0.8c0.4,0.2,0.8,0.4,1.3,0.4c0.7,0.1,1.2,0,1.7-0.1c0.5-0.2,0.9-0.4,1.3-0.8l1,0.9c-0.2,0.2-0.4,0.4-0.7,0.6
		c-0.3,0.2-0.6,0.3-0.9,0.5c-0.4,0.1-0.8,0.2-1.2,0.3C190.4,22.4,189.9,22.4,189.3,22.3z M190.2,13.8c-0.4,0-0.7,0-1.1,0
		c-0.3,0.1-0.6,0.2-0.9,0.4c-0.3,0.2-0.5,0.5-0.7,0.8c-0.2,0.3-0.4,0.7-0.5,1.1l5.5,0.7l0-0.1c0-0.3,0-0.6-0.1-1
		c-0.1-0.3-0.2-0.6-0.3-0.9c-0.2-0.3-0.4-0.5-0.7-0.7C191,14,190.7,13.9,190.2,13.8z"/>
	<path fill="#FFFFFF" d="M205.2,23.5c0.3,0.1,0.6,0.1,1,0s0.6-0.1,0.9-0.2c0.3-0.1,0.5-0.3,0.7-0.5c0.2-0.2,0.3-0.4,0.4-0.7l1.7,0.3
		c-0.1,0.4-0.3,0.8-0.6,1.1s-0.7,0.6-1.1,0.8c-0.4,0.2-0.9,0.4-1.5,0.4c-0.5,0.1-1.1,0.1-1.7,0c-0.8-0.2-1.5-0.4-2-0.8
		s-1-0.8-1.3-1.3c-0.3-0.5-0.5-1.1-0.6-1.7c-0.1-0.6-0.1-1.2,0-1.8l0.1-0.4c0.1-0.6,0.3-1.2,0.6-1.7s0.7-1,1.2-1.3
		c0.5-0.4,1-0.6,1.7-0.7c0.6-0.1,1.4-0.1,2.2,0c0.6,0.1,1.2,0.3,1.7,0.6c0.5,0.3,0.9,0.6,1.2,1c0.3,0.4,0.5,0.8,0.7,1.2
		c0.1,0.5,0.2,0.9,0.1,1.4l-1.7-0.3c0-0.3,0-0.6-0.1-0.9c-0.1-0.3-0.2-0.5-0.4-0.8c-0.2-0.2-0.4-0.4-0.7-0.6c-0.3-0.2-0.6-0.3-1-0.4
		c-0.6-0.1-1.1-0.1-1.5,0c-0.4,0.1-0.8,0.3-1.1,0.6c-0.3,0.3-0.5,0.6-0.7,1c-0.2,0.4-0.3,0.8-0.4,1.2l-0.1,0.4
		c-0.1,0.4-0.1,0.8-0.1,1.2c0,0.4,0.1,0.8,0.3,1.2c0.2,0.4,0.4,0.7,0.8,0.9S204.6,23.4,205.2,23.5z"/>
	<path fill="#FFFFFF" d="M211.8,21c0.2-0.7,0.4-1.3,0.8-1.8c0.4-0.5,0.8-0.9,1.3-1.3c0.5-0.3,1.1-0.5,1.8-0.6
		c0.7-0.1,1.4-0.1,2.1,0.1c0.8,0.2,1.4,0.5,2,0.8s1,0.8,1.3,1.4c0.3,0.5,0.5,1.1,0.6,1.7s0.1,1.3-0.1,1.9l0,0.2
		c-0.2,0.7-0.4,1.3-0.8,1.8s-0.8,0.9-1.3,1.3s-1.1,0.5-1.8,0.6c-0.7,0.1-1.4,0.1-2.1-0.1c-0.8-0.2-1.4-0.5-1.9-0.8s-1-0.8-1.3-1.3
		c-0.3-0.5-0.5-1.1-0.6-1.7c-0.1-0.6-0.1-1.3,0.1-1.9L211.8,21z M213.6,21.6c-0.1,0.5-0.1,0.9-0.1,1.4s0.1,0.8,0.3,1.2
		c0.2,0.4,0.4,0.7,0.8,1c0.3,0.3,0.8,0.5,1.3,0.6c0.5,0.1,1,0.1,1.4,0c0.4-0.1,0.8-0.3,1.1-0.5c0.3-0.3,0.6-0.6,0.8-0.9
		c0.2-0.4,0.4-0.8,0.5-1.3l0-0.2c0.1-0.5,0.1-0.9,0.1-1.4s-0.1-0.9-0.3-1.2c-0.2-0.4-0.4-0.7-0.8-1c-0.3-0.3-0.8-0.5-1.3-0.6
		c-0.5-0.1-1-0.1-1.4,0s-0.8,0.3-1.1,0.5s-0.6,0.6-0.8,1c-0.2,0.4-0.4,0.8-0.5,1.3L213.6,21.6z"/>
	<path fill="#FFFFFF" d="M224.6,29.2l-1.8-0.5l3.6-13l1.8,0.5L224.6,29.2z"/>
	<path fill="#FFFFFF" d="M228.3,25.2c0.2-0.7,0.5-1.2,0.9-1.7c0.4-0.5,0.9-0.9,1.4-1.2c0.5-0.3,1.1-0.4,1.8-0.5c0.7,0,1.4,0,2.1,0.3
		c0.7,0.2,1.4,0.6,1.9,1s0.9,0.9,1.2,1.4c0.3,0.5,0.4,1.1,0.5,1.8c0,0.6,0,1.3-0.3,1.9l-0.1,0.2c-0.2,0.7-0.5,1.2-0.9,1.7
		c-0.4,0.5-0.9,0.9-1.4,1.2s-1.1,0.4-1.8,0.5c-0.7,0-1.4,0-2.1-0.3s-1.4-0.6-1.9-1s-0.9-0.9-1.2-1.4c-0.3-0.5-0.4-1.1-0.5-1.8
		s0-1.3,0.2-1.9L228.3,25.2z M230.1,25.9c-0.1,0.5-0.2,0.9-0.2,1.3c0,0.4,0.1,0.9,0.2,1.2c0.2,0.4,0.4,0.7,0.7,1s0.7,0.5,1.2,0.7
		c0.5,0.2,0.9,0.2,1.4,0.1c0.4-0.1,0.8-0.2,1.2-0.4s0.6-0.5,0.9-0.9c0.3-0.4,0.5-0.8,0.6-1.2l0.1-0.2c0.1-0.4,0.2-0.9,0.2-1.3
		s-0.1-0.9-0.2-1.2c-0.2-0.4-0.4-0.7-0.7-1c-0.3-0.3-0.7-0.5-1.2-0.7c-0.5-0.2-0.9-0.2-1.4-0.1s-0.8,0.2-1.2,0.4
		c-0.3,0.2-0.6,0.5-0.9,0.9c-0.3,0.4-0.4,0.8-0.6,1.2L230.1,25.9z"/>
	<path fill="#FFFFFF" d="M245.1,35.1c-0.4,0.2-1,0.3-1.5,0.3s-1.2-0.1-1.9-0.4c-0.5-0.2-0.9-0.4-1.3-0.7c-0.4-0.3-0.6-0.6-0.8-1
		s-0.3-0.8-0.3-1.3c0-0.5,0.1-1,0.3-1.6l2.2-5.7l1.7,0.7l-2.2,5.7c-0.2,0.4-0.2,0.7-0.2,1c0,0.3,0.1,0.6,0.2,0.8
		c0.1,0.2,0.3,0.4,0.5,0.5c0.2,0.1,0.4,0.3,0.7,0.4c0.7,0.3,1.3,0.4,1.9,0.3c0.5-0.1,1-0.3,1.3-0.6l2.5-6.4l1.7,0.7l-3.4,8.9
		l-1.7-0.6L245.1,35.1z"/>
	<path fill="#FFFFFF" d="M257,32.6c-0.1-0.1-0.3-0.2-0.4-0.2c-0.1-0.1-0.3-0.1-0.4-0.2c-0.6-0.3-1.1-0.4-1.6-0.3
		c-0.5,0.1-0.9,0.2-1.2,0.5l-2.8,6.1l-1.7-0.8l3.9-8.7l1.7,0.8l-0.4,1c0.4-0.2,0.9-0.4,1.4-0.4c0.5,0,1,0.1,1.6,0.3
		c0.1,0.1,0.3,0.1,0.4,0.2c0.1,0.1,0.2,0.2,0.3,0.2L257,32.6z"/>
</g>
</svg>
